<?xml version="1.0" encoding="UTF-8"?>
<svg width="35px" height="35px" viewBox="0 0 35 35" version="1.1" xmlns="http://www.w3.org/2000/svg" xmlns:xlink="http://www.w3.org/1999/xlink">
    <!-- Generator: Sketch 52.2 (67145) - http://www.bohemiancoding.com/sketch -->
    <title>Exit_circle_icon</title>
    <desc>Created with Sketch.</desc>
    <g id="Exit_circle_icon" stroke="none" stroke-width="1" fill="none" fill-rule="evenodd">
        <g id="add">
            <g id="avatar" transform="translate(17.500000, 17.500000) rotate(90.000000) translate(-17.500000, -17.500000) ">
                <g id="Group-4">
                    <rect id="background" fill="#ee2375" x="0" y="0" width="35" height="35" rx="17.5"></rect>
                    <path d="M18.5193049,16.4017478 L22.6640417,16.4017478 C23.172725,16.4017478 23.5850944,16.8141171 23.5850944,17.3228004 C23.5850944,17.8314837 23.172725,18.243853 22.6640417,18.243853 L18.5193049,18.243853 L18.5193049,22.3885899 C18.5193049,22.8972732 18.1069356,23.3096425 17.5982522,23.3096425 C17.0895689,23.3096425 16.6771996,22.8972732 16.6771996,22.3885899 L16.6771996,18.243853 L12.5324628,18.243853 C12.0237795,18.243853 11.6114101,17.8314837 11.6114101,17.3228004 C11.6114101,16.8141171 12.0237795,16.4017478 12.5324628,16.4017478 L16.6771996,16.4017478 L16.6771996,12.2570109 C16.6771996,11.7483276 17.0895689,11.3359583 17.5982522,11.3359583 C18.1069356,11.3359583 18.5193049,11.7483276 18.5193049,12.2570109 L18.5193049,16.4017478 Z" id="Combined-Shape" fill="#FFFFFF" transform="translate(17.598252, 17.322800) rotate(45.000000) translate(-17.598252, -17.322800) "></path>
                </g>
            </g>
        </g>
    </g>
</svg>