<?xml version="1.0" encoding="UTF-8"?>
<svg width="161px" height="58px" viewBox="0 0 161 58" version="1.1" xmlns="http://www.w3.org/2000/svg" xmlns:xlink="http://www.w3.org/1999/xlink">
    <!-- Generator: Sketch 52.2 (67145) - http://www.bohemiancoding.com/sketch -->
    <title>Group</title>
    <desc>Created with Sketch.</desc>
    <g id="Page-1" stroke="none" stroke-width="1" fill="none" fill-rule="evenodd">
        <g id="iPhone-X_Logga-in_1" transform="translate(-39.000000, -71.000000)">
            <g id="Group" transform="translate(39.000000, 71.000000)">
                <g id="logo" transform="translate(1.000000, 0.000000)">
                    <polygon id="Path" fill="#575756" points="51.4285714 10.6229508 51.4285714 33.0491803 45.7142857 33.0491803 45.7142857 10.6229508"></polygon>
                    <path d="M66.2045855,24.105357 L58.8218695,24.105357 L58.8218695,28.1797105 C58.8218695,28.9945812 58.9029982,29.5649907 58.984127,29.809452 C59.1463845,30.0539132 59.308642,30.2168873 59.7142857,30.2168873 C60.1199295,30.2168873 60.4444444,30.0539132 60.6067019,29.7279649 C60.7689594,29.4020166 60.8500882,28.75012 60.8500882,27.8537623 L60.8500882,25.4091501 L66.2045855,25.4091501 L66.2045855,26.7944303 C66.2045855,27.9352493 66.1234568,28.8316071 65.9611993,29.4835037 C65.7989418,30.1354002 65.4744268,30.7872968 64.9065256,31.4391934 C64.3386243,32.0910899 63.6895944,32.6614994 62.8783069,33.0689348 C62.0670194,33.3948831 61.0123457,33.6393443 59.7954145,33.6393443 C58.5784832,33.6393443 57.5238095,33.4763701 56.6313933,33.1504218 C55.7389771,32.8244736 55.0088183,32.3355511 54.5220459,31.6836546 C54.0352734,31.1132451 53.6296296,30.3798614 53.4673721,29.6464778 C53.3051146,28.9130942 53.1428571,27.8537623 53.1428571,26.4684821 L53.1428571,21.0088483 C53.1428571,19.3791069 53.3862434,18.0753138 53.7918871,17.097469 C54.1975309,16.1196241 54.9276896,15.3862405 55.9823633,14.8973181 C56.9559083,14.4083956 58.1728395,14.1639344 59.4708995,14.1639344 C61.0934744,14.1639344 62.3915344,14.4898827 63.4462081,15.0602922 C64.5008818,15.6307017 65.2310406,16.4455724 65.6366843,17.5049043 C66.042328,18.5642362 66.2857143,19.9495164 66.2857143,21.742232 L66.2857143,24.105357 L66.2045855,24.105357 Z M60.5255732,21.0088483 L60.5255732,19.6235681 C60.5255732,18.6457233 60.4444444,17.9938267 60.3633157,17.7493655 C60.2821869,17.5049043 60.0388007,17.3419302 59.7142857,17.3419302 C59.308642,17.3419302 59.0652557,17.4234172 58.984127,17.6678785 C58.9029982,17.9123397 58.8218695,18.5642362 58.8218695,19.6235681 L58.8218695,21.0088483 L60.5255732,21.0088483 Z" id="Shape" fill="#575756" fill-rule="nonzero"></path>
                    <path d="M80.5714286,10.6229508 L80.5714286,33.3163072 L75.0714286,33.3163072 L75.0714286,31.9433995 C74.5214286,32.5087144 73.9714286,32.9125108 73.4214286,33.2355479 C72.8714286,33.4778257 72.2428571,33.6393443 71.6142857,33.6393443 C70.75,33.6393443 70.0428571,33.3970664 69.4142857,32.9125108 C68.7857143,32.4279551 68.3928571,31.9433995 68.2357143,31.2973253 C68.0785714,30.6512511 68,29.6821398 68,28.3092321 L68,19.6679896 C68,18.2143227 68.0785714,17.2452114 68.2357143,16.5991372 C68.3928571,16.0338223 68.7857143,15.4685073 69.4928571,14.9839517 C70.1214286,14.499396 70.9071429,14.3378775 71.7714286,14.3378775 C72.4785714,14.3378775 73.1071429,14.499396 73.6571429,14.7416739 C74.2071429,14.9839517 74.7571429,15.3877481 75.2285714,15.8723037 L75.2285714,10.6229508 L80.5714286,10.6229508 Z M75.0714286,19.3449525 C75.0714286,18.6988783 74.9928571,18.2143227 74.9142857,17.9720449 C74.8357143,17.729767 74.6,17.6490078 74.2071429,17.6490078 C73.8928571,17.6490078 73.6571429,17.729767 73.5785714,17.9720449 C73.5,18.2143227 73.4214286,18.6181191 73.4214286,19.3449525 L73.4214286,28.4707506 C73.4214286,29.1975841 73.5,29.7628991 73.5785714,29.9244176 C73.6571429,30.1666954 73.8928571,30.2474547 74.2071429,30.2474547 C74.6,30.2474547 74.8357143,30.0859362 74.9142857,29.8436583 C75.0714286,29.6013805 75.0714286,28.9553063 75.0714286,27.9054357 L75.0714286,19.3449525 Z" id="Shape" fill="#575756" fill-rule="nonzero"></path>
                    <path d="M87.5040431,21.742232 L82.2857143,21.742232 L82.2857143,20.5199259 C82.2857143,19.0531587 82.4438455,17.9123397 82.7601078,17.178956 C83.0763702,16.3640853 83.7088949,15.7121888 84.7367475,15.0602922 C85.6855346,14.4898827 86.950584,14.1639344 88.5318958,14.1639344 C90.4294699,14.1639344 91.8526505,14.4898827 92.8014376,15.2232663 C93.7502246,15.8751629 94.3036837,16.7715207 94.5408805,17.7493655 C94.6990117,18.7272104 94.8571429,20.7643871 94.8571429,23.8608958 L94.8571429,33.313396 L89.4806828,33.313396 L89.4806828,31.6021675 C89.1644205,32.2540641 88.690027,32.7429865 88.1365678,33.1504218 C87.5831087,33.4763701 86.950584,33.6393443 86.2389937,33.6393443 C85.2902066,33.6393443 84.3414196,33.3948831 83.5507637,32.8244736 C82.7601078,32.2540641 82.3647799,31.031758 82.3647799,29.1575554 L82.3647799,27.609301 C82.3647799,26.2240209 82.6019766,25.246176 82.9973046,24.7572536 C83.3926325,24.2683312 84.4995508,23.6164346 86.1599281,22.964538 C87.9784367,22.2311544 88.9272237,21.742232 89.0853549,21.4977708 C89.2434861,21.2533096 89.2434861,20.7643871 89.2434861,19.9495164 C89.2434861,18.9716716 89.1644205,18.319775 89.0062893,17.9938267 C88.8481581,17.6678785 88.6109614,17.5863914 88.294699,17.5863914 C87.8993711,17.5863914 87.6621743,17.7493655 87.5831087,17.9938267 C87.5040431,18.2382879 87.4249775,18.8901845 87.4249775,19.9495164 L87.4249775,21.742232 L87.5040431,21.742232 Z M89.2434861,24.2683312 C88.3737646,24.9202277 87.8203055,25.4906372 87.6621743,25.9795596 C87.5040431,26.4684821 87.4249775,27.1203786 87.4249775,27.9352493 C87.4249775,28.9130942 87.5040431,29.5649907 87.5831087,29.809452 C87.7412399,30.0539132 87.9784367,30.2168873 88.294699,30.2168873 C88.6109614,30.2168873 88.8481581,30.1354002 89.0062893,29.890939 C89.0853549,29.6464778 89.1644205,29.0760683 89.1644205,28.1797105 L89.1644205,24.2683312 L89.2434861,24.2683312 Z" id="Shape" fill="#575756" fill-rule="nonzero"></path>
                    <path d="M102.337194,15.0769231 L102.09009,17.4981084 C102.913771,15.7225725 104.149292,14.8348045 105.714286,14.7540984 L105.714286,21.2912989 C104.643501,21.2912989 103.902188,21.4527112 103.407979,21.6948298 C102.913771,21.9369483 102.584299,22.3404792 102.501931,22.8247163 C102.419562,23.3089533 102.337194,24.4388398 102.337194,26.295082 L102.337194,33.6393443 L96.5714286,33.6393443 L96.5714286,15.0769231 L102.337194,15.0769231 Z" id="Path" fill="#575756"></path>
                    <path d="M117.880184,20.4934426 L112.851613,20.4934426 L112.851613,19.5196721 C112.851613,18.6270492 112.770507,18.1401639 112.689401,17.8967213 C112.608295,17.6532787 112.364977,17.5721311 111.959447,17.5721311 C111.635023,17.5721311 111.391705,17.6532787 111.229493,17.8967213 C111.067281,18.1401639 110.986175,18.4647541 110.986175,18.8704918 C110.986175,19.4385246 110.986175,19.8442623 111.067281,20.1688525 C111.148387,20.4122951 111.391705,20.7368852 111.797235,21.0614754 C112.202765,21.3860656 113.013825,21.8729508 114.230415,22.4409836 C115.852535,23.252459 116.988018,23.9827869 117.474654,24.7131148 C117.96129,25.4434426 118.285714,26.4983607 118.285714,27.7967213 C118.285714,29.3385246 118.123502,30.4745902 117.717972,31.204918 C117.312442,31.9352459 116.663594,32.5844262 115.771429,32.9901639 C114.879263,33.3959016 113.743779,33.6393443 112.446083,33.6393443 C110.986175,33.6393443 109.769585,33.3959016 108.715207,32.9901639 C107.660829,32.5032787 107.011982,31.9352459 106.606452,31.1237705 C106.200922,30.3122951 106.03871,29.1762295 106.03871,27.6344262 L106.03871,26.7418033 L111.067281,26.7418033 L111.067281,27.9590164 C111.067281,28.9327869 111.148387,29.5819672 111.229493,29.9065574 C111.391705,30.2311475 111.635023,30.3934426 111.959447,30.3934426 C112.364977,30.3934426 112.608295,30.3122951 112.770507,30.0688525 C112.932719,29.9065574 113.013825,29.4196721 113.013825,28.7704918 C113.013825,27.8778689 112.932719,27.3098361 112.689401,27.0663934 C112.446083,26.8229508 111.391705,26.1737705 109.364055,25.0377049 C107.660829,24.0639344 106.687558,23.252459 106.282028,22.4409836 C105.876498,21.7106557 105.714286,20.7368852 105.714286,19.6819672 C105.714286,18.2213115 105.876498,17.0852459 106.282028,16.354918 C106.687558,15.6245902 107.336406,15.1377049 108.309677,14.7319672 C109.282949,14.3262295 110.337327,14.1639344 111.635023,14.1639344 C112.851613,14.1639344 113.905991,14.3262295 114.798157,14.6508197 C115.690323,14.9754098 116.339171,15.3811475 116.825806,15.8680328 C117.312442,16.354918 117.55576,16.8418033 117.636866,17.3286885 C117.717972,17.8155738 117.799078,18.4647541 117.799078,19.4385246 L117.799078,20.4934426 L117.880184,20.4934426 Z" id="Path" fill="#575756"></path>
                    <polygon id="Path" fill="#575756" points="131.859838 14.6133831 129.646002 21.9557785 132.571429 33.0491803 127.274034 33.0491803 125.534591 25.0683157 125.534591 33.0491803 120 33.0491803 120 10.6229508 125.534591 10.6229508 125.534591 20.040371 127.274034 14.6931918 131.859838 14.6931918"></polygon>
                    <path d="M137.789757,21.742232 L132.571429,21.742232 L132.571429,20.5199259 C132.571429,19.0531587 132.72956,17.9123397 133.045822,17.178956 C133.362084,16.3640853 133.994609,15.7121888 135.022462,15.0602922 C135.971249,14.4898827 137.236298,14.1639344 138.81761,14.1639344 C140.715184,14.1639344 142.138365,14.4898827 143.087152,15.2232663 C144.035939,15.8751629 144.589398,16.7715207 144.826595,17.7493655 C144.984726,18.7272104 145.142857,20.7643871 145.142857,23.8608958 L145.142857,33.313396 L139.766397,33.313396 L139.766397,31.6021675 C139.450135,32.2540641 138.975741,32.7429865 138.422282,33.1504218 C137.868823,33.4763701 137.236298,33.6393443 136.524708,33.6393443 C135.575921,33.6393443 134.627134,33.3948831 133.836478,32.8244736 C133.045822,32.2540641 132.650494,31.031758 132.650494,29.1575554 L132.650494,27.609301 C132.650494,26.2240209 132.887691,25.246176 133.283019,24.7572536 C133.678347,24.2683312 134.785265,23.6164346 136.445642,22.964538 C138.264151,22.2311544 139.212938,21.742232 139.371069,21.4977708 C139.5292,21.2533096 139.5292,20.7643871 139.5292,19.9495164 C139.5292,18.9716716 139.450135,18.319775 139.292004,17.9938267 C139.133872,17.6678785 138.896676,17.5863914 138.580413,17.5863914 C138.185085,17.5863914 137.947889,17.7493655 137.868823,17.9938267 C137.789757,18.2382879 137.710692,18.8901845 137.710692,19.9495164 L137.710692,21.742232 L137.789757,21.742232 Z M139.5292,24.2683312 C138.659479,24.9202277 138.10602,25.4906372 137.947889,25.9795596 C137.789757,26.4684821 137.710692,27.1203786 137.710692,27.9352493 C137.710692,28.9130942 137.789757,29.5649907 137.868823,29.809452 C138.026954,30.0539132 138.264151,30.2168873 138.580413,30.2168873 C138.896676,30.2168873 139.133872,30.1354002 139.292004,29.890939 C139.371069,29.6464778 139.450135,29.0760683 139.450135,28.1797105 L139.450135,24.2683312 L139.5292,24.2683312 Z" id="Shape" fill="#575756" fill-rule="nonzero"></path>
                    <path d="M152.571429,14.4898459 L152.489796,16.119403 C152.979592,15.4675801 153.55102,14.978713 154.204082,14.6528016 C154.857143,14.3268901 155.510204,14.1639344 156.244898,14.1639344 C157.142857,14.1639344 157.877551,14.408368 158.530612,14.8972351 C159.183673,15.3861023 159.591837,15.9564473 159.755102,16.5267923 C159.918367,17.0971373 160,18.2378273 160,19.7044287 L160,27.6077808 C160,29.3188158 159.918367,30.5409836 159.673469,31.2742843 C159.428571,32.007585 159.020408,32.57793 158.44898,32.9853193 C157.795918,33.3927086 157.061224,33.6371422 156.163265,33.6371422 C155.428571,33.6371422 154.77551,33.4741864 154.204082,33.148275 C153.632653,32.8223636 153.061224,32.3334965 152.571429,31.6816736 L152.571429,36 L146.857143,36 L146.857143,14.4898459 L152.571429,14.4898459 Z M154.204082,19.9488622 C154.204082,18.8081723 154.122449,18.0748715 154.040816,17.830438 C153.959184,17.5860044 153.714286,17.4230487 153.306122,17.4230487 C152.897959,17.4230487 152.653061,17.5860044 152.571429,17.830438 C152.489796,18.0748715 152.408163,18.8081723 152.408163,19.8673844 L152.408163,27.6077808 C152.408163,28.7484708 152.489796,29.4817715 152.571429,29.726205 C152.653061,29.9706386 152.897959,30.1335943 153.306122,30.1335943 C153.714286,30.1335943 153.877551,29.9706386 153.959184,29.726205 C154.040816,29.4817715 154.122449,28.8299486 154.122449,27.8522143 L154.122449,19.9488622 L154.204082,19.9488622 Z" id="Shape" fill="#575756" fill-rule="nonzero"></path>
                    <path d="M25.7611241,1.4539046e-15 L14.9102264,1.4539046e-15 L12.9586261,15.7147302 L11.7876659,7.12073711 C11.4754098,4.33792031 11.0850898,1.96434127 10.7728337,1.4539046e-15 L0,0 L0,33.6393443 L7.25995316,33.6393443 L7.18188915,10.5583343 L10.3825137,33.6393443 L15.5347385,33.6393443 L18.4231069,10.5583343 L18.4231069,33.6393443 L25.6830601,33.6393443 L25.6830601,10.5583343 L22.3263076,10.5583343 L28.1811085,0 L34.0359094,10.5583343 L30.6791569,10.5583343 L30.6791569,33.6393443 L37.9391101,33.6393443 L37.9391101,10.5583343 L42.8571429,10.5583343 L42.8571429,0 L25.7611241,1.4539046e-15 Z" id="Path" fill="#82BA26"></path>
                </g>
                <g id="Group-6" transform="translate(0.000000, 46.000000)">
                    <path d="M5.76923077,0 L5.76923077,0 C8.95548894,-5.85306131e-16 11.5384615,2.5829726 11.5384615,5.76923077 L11.5384615,6.23076923 C11.5384615,9.4170274 8.95548894,12 5.76923077,12 L5.76923077,12 C2.5829726,12 -1.38615275e-15,9.4170274 -1.77635684e-15,6.23076923 L-8.8817842e-16,5.76923077 C-1.27838251e-15,2.5829726 2.5829726,5.85306131e-16 5.76923077,0 Z" id="Rectangle" fill="#E82E7A"></path>
                    <path d="M21.9230769,0 L21.9230769,0 C25.1093351,-5.85306131e-16 27.6923077,2.5829726 27.6923077,5.76923077 L27.6923077,6.23076923 C27.6923077,9.4170274 25.1093351,12 21.9230769,12 L21.9230769,12 C18.7368188,12 16.1538462,9.4170274 16.1538462,6.23076923 L16.1538462,5.76923077 C16.1538462,2.5829726 18.7368188,5.85306131e-16 21.9230769,0 Z" id="Rectangle" fill="#42AAFD"></path>
                    <path d="M38.0769231,0 L38.0769231,0 C41.2631812,-5.85306131e-16 43.8461538,2.5829726 43.8461538,5.76923077 L43.8461538,6.23076923 C43.8461538,9.4170274 41.2631812,12 38.0769231,12 L38.0769231,12 C34.8906649,12 32.3076923,9.4170274 32.3076923,6.23076923 L32.3076923,5.76923077 C32.3076923,2.5829726 34.8906649,5.85306131e-16 38.0769231,0 Z" id="Rectangle" fill="#F39E44"></path>
                    <path d="M54.2307692,0 L54.2307692,0 C57.4170274,-5.85306131e-16 60,2.5829726 60,5.76923077 L60,6.23076923 C60,9.4170274 57.4170274,12 54.2307692,12 L54.2307692,12 C51.0445111,12 48.4615385,9.4170274 48.4615385,6.23076923 L48.4615385,5.76923077 C48.4615385,2.5829726 51.0445111,5.85306131e-16 54.2307692,0 Z" id="Rectangle" fill="#97BF0C"></path>
                </g>
            </g>
        </g>
    </g>
</svg>